# xmcd CD database file
#
# Track frame offsets:
#	150
#	17242
#	34340
#
# Disc length: 681 seconds
#
# Revision: 0
# Processed by: cddbd v1.5PL3 Copyright (c) Steve Scherf et al.
# Submitted via: CDex 1.50beta9
#
DISCID=1f02a703
DTITLE=桜っ子クラブさくら組 - ＤＯ−して
DYEAR=1993
DGENRE=Anime
TTITLE0=ＤＯ−して
TTITLE1=ＤＯ−して　加藤紀子＆さくら組
TTITLE2=ＤＯ−して　カラオケ
EXTD=YEAR: 1993
EXTT0=
EXTT1=
EXTT2=
PLAYORDER=
